# xmcd
#
# Track frame offsets:
#	150
#	14651
#	32793
#	50831
#	67331
#	85021
#	102008
#	119746
#	136678
#	150999
#	185283
#	201026
#	227589
#	246553
#	262907
#	283072
#	308029
#
# Disc length: 4472
#
# Revision: 3
# Processed by: cddbd v1.5.1PL0 Copyright (c) Steve Scherf et al.
# Submitted via: CDex 1.50Beta2
# Normalized: r2:TDELIM( - )
#
DISCID=ee117611
DTITLE=Various Artist - POP LIFE
DYEAR=1900
DGENRE=Pop
TTITLE0=Junkie XI - Billy Club
TTITLE1=Ventura - Birds
TTITLE2=Possitive Vibrations - Lines Of Delight
TTITLE3=Back 2 Bass - I Wanna Be With You
TTITLE4=Sybil - My Love Is Guaranteed
TTITLE5=4 Pm - I Gave You Everything
TTITLE6=Tony Scott - Please Don't Go
TTITLE7=Shootyz Groove - Anchor
TTITLE8=Dog Eat Dog - Step Right In
TTITLE9=Drug Free America - Jewels and Calories
TTITLE10=Party Animals - Atomic
TTITLE11=Cay - Guitar Maniac
TTITLE12=Electra Glide - House Of B3 Street
TTITLE13=Baby Fox - Curlylocks
TTITLE14=Paradise Lost - The Sufferer
TTITLE15=Tongue - Bionic Bass
TTITLE16=Fear Factory - Bound For Forgiveness
EXTD=
EXTT0=
EXTT1=
EXTT2=
EXTT3=
EXTT4=
EXTT5=
EXTT6=
EXTT7=
EXTT8=
EXTT9=
EXTT10=
EXTT11=
EXTT12=
EXTT13=
EXTT14=
EXTT15=
EXTT16=
PLAYORDER=
